<svg xmlns="http://www.w3.org/2000/svg" width="14.037" height="8.8" viewBox="0 0 14.037 8.8"><path d="M5.654,9.244a1.849,1.849,0,0,0,1.179-1.8c0-1.72-1.282-2.14-2.761-2.14H0v8.636H4.187c1.569,0,3.044-.753,3.044-2.508A2.081,2.081,0,0,0,5.654,9.244ZM1.9,6.776H3.68c.685,0,1.3.193,1.3.987,0,.734-.48,1.028-1.158,1.028H1.9Zm2.03,5.7H1.9V10.093H3.967c.836,0,1.365.348,1.365,1.233s-.631,1.145-1.4,1.145Zm8.736-5.866h-3.5v-.85h3.5v.85Zm1.372,4.3c0-1.85-1.082-3.392-3.044-3.392a3.143,3.143,0,0,0-3.2,3.309,3.046,3.046,0,0,0,3.2,3.283A2.788,2.788,0,0,0,13.92,12H12.4a1.423,1.423,0,0,1-1.357.816,1.414,1.414,0,0,1-1.535-1.591h4.511C14.029,11.121,14.037,11.011,14.037,10.9Zm-4.523-.76a1.342,1.342,0,0,1,1.426-1.335,1.28,1.28,0,0,1,1.37,1.335Z" transform="translate(0 -5.302)" fill="#214de3"/></svg>