<svg xmlns="http://www.w3.org/2000/svg" xmlns:xlink="http://www.w3.org/1999/xlink" width="1118.158" height="1715.256" viewBox="0 0 1118.158 1715.256"><defs><linearGradient id="a" x1="0.061" y1="0.05" x2="0.804" y2="1.456" gradientUnits="objectBoundingBox"><stop offset="0" stop-color="#1ee399"/><stop offset="0.376" stop-color="#2095c0"/><stop offset="1" stop-color="#214de3"/></linearGradient><linearGradient id="b" x1="0.682" y1="1.25" x2="0.279" gradientUnits="objectBoundingBox"><stop offset="0" stop-color="#e34b1e"/><stop offset="0.567" stop-color="#754c8e"/><stop offset="1" stop-color="#214de3"/></linearGradient></defs><g transform="translate(-8338 -3287.745)"><path  d="M4118.158-1908H3000V-3612.523l.807-10.733c0,.068-.06,11.147.472,30.272.494,17.746,1.613,46.379,4.136,82.007,2.837,40.053,6.833,80.6,11.879,120.528,6.307,49.908,14.281,98.974,23.7,145.835,23.976,119.283,57.346,225.176,99.184,314.738,12.093,25.887,25.065,50.735,38.558,73.855,7.014,12.018,14.313,23.817,21.694,35.067,7.567,11.534,15.436,22.823,23.389,33.552,8.141,10.984,16.6,21.693,25.147,31.831,8.743,10.372,17.817,20.432,26.969,29.9,9.358,9.682,19.066,19.024,28.856,27.767,10,8.93,20.364,17.485,30.806,25.426,21.17,16.1,43.156,31.581,67.214,47.324,21.39,14,43.9,27.86,68.832,42.381,46.244,26.939,93.47,51.819,139.141,75.88l.072.038c28.494,15.012,57.958,30.535,86.291,46.109,31.725,17.439,58.942,33.26,83.205,48.369,29.035,18.08,54.663,35.607,78.349,53.583,12.809,9.721,25.2,19.707,36.823,29.681,12.177,10.449,23.944,21.25,34.972,32.106,11.482,11.3,22.554,23.045,32.909,34.9,10.728,12.287,21.034,25.1,30.633,38.077,9.912,13.4,19.381,27.407,28.145,41.624,9.024,14.639,17.585,29.962,25.444,45.544,8.071,16,15.651,32.768,22.532,49.838,7.05,17.488,13.579,35.826,19.407,54.506,5.959,19.1,11.366,39.135,16.069,59.548,4.8,20.842,9.015,42.7,12.52,64.964Z" transform="translate(5338 6911)" fill="url(#a) "/><path d="M3272.158-1908H3000V-2915.314c7.969-.29,16.237-.436,24.572-.436h.021c7.573,0,15.413.121,23.3.361,25.523.773,50.545,2.478,74.372,5.069,23.028,2.5,45.563,5.9,66.979,10.1,20.661,4.051,40.84,8.955,59.975,14.577,18.422,5.413,36.375,11.637,53.36,18.5a507.836,507.836,0,0,1,47.134,21.868,458.629,458.629,0,0,1,41.3,24.682,426.358,426.358,0,0,1,35.85,26.941,407.869,407.869,0,0,1,30.791,28.646c9.168,9.466,17.956,19.491,26.121,29.8,7.7,9.723,15.052,19.949,21.84,30.393,6.369,9.8,12.408,20.038,17.948,30.434,5.162,9.685,10.022,19.752,14.446,29.922a438.633,438.633,0,0,1,19.94,56.088,451.73,451.73,0,0,1,10.6,47.383,329.042,329.042,0,0,1,4.064,47.163,514.721,514.721,0,0,1-2.113,56.33,629.827,629.827,0,0,1-8.856,62.42,648.607,648.607,0,0,1-16.164,65.431,592.546,592.546,0,0,1-24.039,65.364,499.46,499.46,0,0,1-32.48,62.219c-26.226,42.385-57.363,76.934-92.548,102.688-38.685,28.316-67.3,56.238-87.487,85.361a237.326,237.326,0,0,0-13.045,21.068,225.393,225.393,0,0,0-10.236,21.258A243.687,243.687,0,0,0,3272.159-1908Z" transform="translate(5338 6911)" fill="url(#b)"/></g></svg>