<svg xmlns="http://www.w3.org/2000/svg" width="13.063" height="13.063" viewBox="0 0 13.063 13.063"><path d="M7.094.563a6.531,6.531,0,1,0,6.531,6.531A6.539,6.539,0,0,0,7.094.563Zm4.318,3.012a5.552,5.552,0,0,1,1.26,3.475,13.037,13.037,0,0,0-3.885-.18c-.151-.37-.294-.7-.49-1.1A7.431,7.431,0,0,0,11.412,3.574Zm-.62-.645A6.3,6.3,0,0,1,7.868,4.944,29.778,29.778,0,0,0,5.786,1.679a5.564,5.564,0,0,1,5.005,1.251Zm-6.07-.876A35.6,35.6,0,0,1,6.79,5.28a20.808,20.808,0,0,1-5.157.68A5.6,5.6,0,0,1,4.722,2.054ZM1.515,7.1c0-.057,0-.114,0-.17a20.579,20.579,0,0,0,5.733-.794c.16.313.312.63.452.947a8.641,8.641,0,0,0-4.754,3.748A5.556,5.556,0,0,1,1.515,7.1ZM3.67,11.5a7.847,7.847,0,0,1,4.413-3.5,23.189,23.189,0,0,1,1.19,4.231,5.567,5.567,0,0,1-5.6-.734Zm6.541.224A24.078,24.078,0,0,0,9.127,7.749a8.188,8.188,0,0,1,3.475.238,5.588,5.588,0,0,1-2.391,3.739Z" transform="translate(-0.563 -0.563)" fill="#214de3"/></svg>