<svg xmlns="http://www.w3.org/2000/svg" width="24.485" height="15.912" viewBox="0 0 24.485 15.912"><path d="M20.876,19.991c-.611-.218-1.609-.229-2.05-.4a2.9,2.9,0,0,1-.949-.442,5.863,5.863,0,0,1-.158-1.554,2.511,2.511,0,0,0,.54-.763,8.485,8.485,0,0,0,.262-1.5s.36.153.5-.567c.12-.622.349-.949.289-1.407s-.316-.349-.316-.349a4.083,4.083,0,0,0,.316-2.039,3.263,3.263,0,0,0-3.523-3.223,3.274,3.274,0,0,0-3.528,3.223,4.144,4.144,0,0,0,.311,2.039s-.256-.109-.316.349.164.785.289,1.407c.142.725.5.567.5.567a8.567,8.567,0,0,0,.262,1.5,2.511,2.511,0,0,0,.54.763,5.863,5.863,0,0,1-.158,1.554,2.788,2.788,0,0,1-.949.436c-.436.169-1.434.191-2.05.409a3.849,3.849,0,0,0-2.5,3.665H23.368A3.841,3.841,0,0,0,20.876,19.991Z" transform="translate(-3.556 -7.748)" fill="#e34b1e"/><path d="M8.132,18.112A3.7,3.7,0,0,0,9.953,17.6c-.845-1.281-.387-2.776-.562-4.172a2.3,2.3,0,0,0-2.547-2.225H6.823A2.308,2.308,0,0,0,4.3,13.433c-.175,1.391.311,3.054-.556,4.172a3.426,3.426,0,0,0,1.827.453h0a2.762,2.762,0,0,1-.055.916,1.377,1.377,0,0,1-.654.3,12.652,12.652,0,0,0-1.412.393,2.3,2.3,0,0,0-1.232,2.029H6.594a3.918,3.918,0,0,1,1.745-1.625,3.662,3.662,0,0,1,1.347-.284s.207-.327-.474-.453a4.649,4.649,0,0,1-1.047-.365C8.061,18.848,8.132,18.112,8.132,18.112Z" transform="translate(-2.215 -8.525)" fill="#e34b1e"/><path d="M25.629,18.112a3.7,3.7,0,0,1-1.821-.507c.845-1.281.387-2.776.562-4.172a2.3,2.3,0,0,1,2.547-2.225h.022a2.308,2.308,0,0,1,2.525,2.225c.175,1.391-.311,3.054.556,4.172a3.426,3.426,0,0,1-1.827.453h0a2.762,2.762,0,0,0,.055.916,1.377,1.377,0,0,0,.654.3,12.652,12.652,0,0,1,1.412.393,2.3,2.3,0,0,1,1.232,2.029H27.167a3.918,3.918,0,0,0-1.745-1.625,3.662,3.662,0,0,0-1.347-.284s-.207-.327.474-.453a4.648,4.648,0,0,0,1.047-.365C25.7,18.848,25.629,18.112,25.629,18.112Z" transform="translate(-7.061 -8.525)" fill="#e34b1e"/></svg>