<svg xmlns="http://www.w3.org/2000/svg" xmlns:xlink="http://www.w3.org/1999/xlink" width="42.736" height="42.726" viewBox="0 0 42.736 42.726"><defs><linearGradient id="a" x1="0.5" x2="0.5" y2="1" gradientUnits="objectBoundingBox"><stop offset="0" stop-color="#214de3"/><stop offset="1" stop-color="#e34b1e"/></linearGradient></defs><path d="M21.367,12.646A10.954,10.954,0,1,0,32.322,23.6,10.937,10.937,0,0,0,21.367,12.646Zm0,18.076A7.122,7.122,0,1,1,28.489,23.6a7.135,7.135,0,0,1-7.122,7.122ZM35.325,12.2A2.555,2.555,0,1,1,32.77,9.643,2.549,2.549,0,0,1,35.325,12.2Zm7.255,2.593c-.162-3.423-.944-6.454-3.451-8.952s-5.53-3.28-8.952-3.451c-3.528-.2-14.1-.2-17.628,0C9.135,2.55,6.1,3.332,3.6,5.83S.316,11.359.145,14.782c-.2,3.528-.2,14.1,0,17.628.162,3.423.944,6.454,3.451,8.952s5.53,3.28,8.952,3.451c3.528.2,14.1.2,17.628,0,3.423-.162,6.454-.944,8.952-3.451s3.28-5.53,3.451-8.952c.2-3.528.2-14.091,0-17.619ZM38.023,36.2a7.21,7.21,0,0,1-4.061,4.061c-2.813,1.115-9.486.858-12.594.858s-9.791.248-12.594-.858A7.21,7.21,0,0,1,4.712,36.2C3.6,33.383,3.854,26.709,3.854,23.6s-.248-9.791.858-12.594A7.21,7.21,0,0,1,8.773,6.945c2.813-1.115,9.486-.858,12.594-.858s9.791-.248,12.594.858a7.21,7.21,0,0,1,4.061,4.061c1.115,2.813.858,9.486.858,12.594S39.139,33.392,38.023,36.2Z" transform="translate(0.005 -2.238)" fill="url(#a)"/></svg>