<?xml version="1.0" encoding="utf-8"?>
<!-- Generator: Adobe Illustrator 24.0.0, SVG Export Plug-In . SVG Version: 6.00 Build 0)  -->
<svg version="1.1" id="Laag_1" xmlns="http://www.w3.org/2000/svg" xmlns:xlink="http://www.w3.org/1999/xlink" x="0px" y="0px"
	 viewBox="0 0 399.4 431.2" style="enable-background:new 0 0 399.4 431.2;" xml:space="preserve">
<style type="text/css">
	.st0{fill:url(#Subtraction_3_1_);}
</style>
<linearGradient id="Subtraction_3_1_" gradientUnits="userSpaceOnUse" x1="-96.2461" y1="636.2631" x2="-95.9405" y2="635.1705" gradientTransform="matrix(335.3478 216.9551 234.2095 -362.0179 -116458.1719 251311.5781)">
	<stop  offset="0" style="stop-color:#E34B1E"/>
	<stop  offset="1" style="stop-color:#214DE3"/>
</linearGradient>
<path id="Subtraction_3" class="st0" d="M1.3,431L1.3,431l-1-0.6L0,265c11.1-2.4,22.6-4.5,34.3-6.1c13.1-1.8,26.6-3.2,40.3-4.1
	c14-0.9,28.5-1.3,43.1-1.1c17.6,0.2,34.8-0.5,51.3-1.8c15.8-1.3,31.5-3.4,47.1-6.3c14.5-2.7,28.8-6.2,42.9-10.5
	c13.2-4,26.1-8.9,38.6-14.5c11.9-5.3,23.3-11.4,34.4-18.3c10.5-6.6,20.6-13.9,30.1-21.8c9.2-7.7,17.8-16.1,25.8-25.1
	c3.9-4.4,7.6-8.9,11.2-13.6l0.5,288.8L1.3,431L1.3,431z"/>
</svg>
