<svg xmlns="http://www.w3.org/2000/svg" xmlns:xlink="http://www.w3.org/1999/xlink" width="508.405" height="821.92" viewBox="0 0 508.405 821.92">
  <defs>
    <style>
      .cls-1 {
        fill: url(#linear-gradient);
      }

    </style>
    <linearGradient id="linear-gradient" x1="0.5" y1="1" x2="0.787" y2="-0.026" gradientUnits="objectBoundingBox">
      <stop offset="0" stop-color="#1ee399"/>
      <stop offset="1" stop-color="#214de3"/>
    </linearGradient>
  </defs>
  <path id="Subtraction_4" data-name="Subtraction 4" class="cls-1" d="M-5020.708,2304.145h-138.625l-22.432-34.543c32.153-45.667,48.125-69.356,58.447-84.892,13.318-20.048,24.752-37.972,34.958-54.8,11.312-18.652,20.943-35.667,29.446-52.018,18.626-35.82,31.3-67.616,38.762-97.2,1.973-7.831,3.6-15.62,4.84-23.152,1.263-7.685,2.162-15.351,2.673-22.786a218.205,218.205,0,0,0,.4-22.468,203.1,203.1,0,0,0-2-22.195,198.528,198.528,0,0,0-5.51-25.651,207.121,207.121,0,0,0-9.1-25.419,231.18,231.18,0,0,0-12.882-25.262,272.356,272.356,0,0,0-16.837-25.179c-6.287-8.382-13.342-16.852-20.97-25.174-7.7-8.4-16.208-16.89-25.286-25.241-9.151-8.417-19.17-16.958-29.78-25.384-10.676-8.478-22.267-17.092-34.452-25.6-11.123-7.769-21.909-15.907-32.059-24.188-9.96-8.128-19.557-16.6-28.521-25.168-8.8-8.418-17.227-17.154-25.035-25.964-7.67-8.656-14.937-17.6-21.6-26.577-6.556-8.836-12.684-17.922-18.214-27.007-5.444-8.94-10.451-18.109-14.881-27.254-.924-1.908-1.848-3.869-2.747-5.831l66.158-42.964,442.247,681-217,140.919Z" transform="translate(5312.116 -1482.224)"/>
</svg>
