<?xml version="1.0" encoding="utf-8"?>
<!-- Generator: Adobe Illustrator 24.0.0, SVG Export Plug-In . SVG Version: 6.00 Build 0)  -->
<svg version="1.1" id="Laag_1" xmlns="http://www.w3.org/2000/svg" xmlns:xlink="http://www.w3.org/1999/xlink" x="0px" y="0px"
	 viewBox="0 0 397.9 821.9" style="enable-background:new 0 0 397.9 821.9;" xml:space="preserve">
<style type="text/css">
	.st0{fill:url(#Subtraction_4_1_);}
	.st1{fill:url(#Subtraction_3_1_);}
</style>
<linearGradient id="Subtraction_4_1_" gradientUnits="userSpaceOnUse" x1="-152.673" y1="830.997" x2="-152.3833" y2="832.0327" gradientTransform="matrix(426.3096 277.0128 447.8356 -689.1979 -307003.4062 615746.125)">
	<stop  offset="0" style="stop-color:#1EE399"/>
	<stop  offset="1" style="stop-color:#214DE3"/>
</linearGradient>
<path id="Subtraction_4" class="st0" d="M136.3,821.6L19,745.3l0-41.6c52.3-21,78.9-32.2,96.2-39.7c22.3-9.6,41.8-18.5,59.7-27.2
	c19.8-9.6,37.3-18.7,53.5-27.8c35.5-20.1,63.7-40,86.3-61c6-5.5,11.6-11.2,16.8-16.9c5.3-5.8,10.3-11.8,14.8-17.8
	c4.6-6,8.8-12.3,12.7-18.8c3.9-6.4,7.4-13.1,10.5-19.9c3.7-8,6.8-16.3,9.4-24.7c2.7-8.7,4.8-17.6,6.3-26.5c1.6-9.4,2.6-18.9,3-28.5
	c0.4-10.2,0.3-20.4-0.4-30.6c-0.7-10.6-2-21.6-3.9-32.8c-1.9-11.3-4.4-23.2-7.5-35.3c-3.1-12.2-6.9-24.9-11.2-37.9
	c-4.4-13-9.4-26.7-15.1-40.6c-5.1-12.7-9.8-25.5-13.8-38.1c-4-12.4-7.4-24.8-10.3-37c-2.8-12-5.1-24-6.9-35.7
	c-1.7-11.5-3-23.1-3.7-34.4c-0.7-11.1-0.9-22.1-0.6-32.9c0.3-10.6,1.1-21.1,2.4-31.3c0.3-2.1,0.6-4.3,0.9-6.4l79.6,0l-0.2,819.6
	L136.3,821.6L136.3,821.6z"/>
<linearGradient id="Subtraction_3_1_" gradientUnits="userSpaceOnUse" x1="-152.3252" y1="830.949" x2="-152.0196" y2="829.8564" gradientTransform="matrix(335.3478 216.9551 234.2095 -362.0179 -143250.5312 334350.125)">
	<stop  offset="0" style="stop-color:#E34B1E"/>
	<stop  offset="1" style="stop-color:#214DE3"/>
</linearGradient>
<path id="Subtraction_3" class="st1" d="M0.2,823.1L0.2,823.1l-1-0.6l-0.3-165.4c11.1-2.4,22.6-4.5,34.3-6.1
	c13.1-1.8,26.6-3.2,40.3-4.1c14-0.9,28.5-1.3,43.1-1.1c17.6,0.2,34.8-0.5,51.3-1.8c15.8-1.3,31.5-3.4,47.1-6.3
	c14.5-2.7,28.8-6.2,42.9-10.5c13.2-4,26.1-8.9,38.6-14.5c11.9-5.3,23.3-11.4,34.4-18.3c10.5-6.6,20.6-13.9,30.1-21.8
	c9.2-7.7,17.8-16.1,25.8-25.1c3.9-4.4,7.6-8.9,11.2-13.6l0.5,288.8L0.2,823.1L0.2,823.1z"/>
</svg>
