<svg xmlns="http://www.w3.org/2000/svg" width="34.148" height="27.754" viewBox="0 0 34.148 27.754"><path d="M34.081,6.674a14.229,14.229,0,0,1-4.019,1.1A7.054,7.054,0,0,0,33.139,3.9,14.46,14.46,0,0,1,28.69,5.587a7,7,0,0,0-12.109,4.778,7.163,7.163,0,0,0,.181,1.6A19.826,19.826,0,0,1,2.333,4.671a6.86,6.86,0,0,0-.948,3.521A7,7,0,0,0,4.5,14.02a6.978,6.978,0,0,1-3.17-.876v.087A7,7,0,0,0,6.943,20.1a7.064,7.064,0,0,1-3.147.121,7.024,7.024,0,0,0,6.55,4.862,14.04,14.04,0,0,1-8.682,2.995A14.858,14.858,0,0,1,0,27.98a19.912,19.912,0,0,0,10.752,3.143c12.882,0,19.918-10.665,19.918-19.9,0-.3,0-.6-.021-.9a14.137,14.137,0,0,0,3.5-3.625l-.067-.028Z" transform="translate(0 -3.369)" fill="#214de3"/></svg>