<svg xmlns="http://www.w3.org/2000/svg" width="20.883" height="20.883" viewBox="0 0 20.883 20.883"><path d="M13.431,3A10.441,10.441,0,1,0,23.883,13.441,10.436,10.436,0,0,0,13.431,3Zm7.236,6.265h-3.08a16.34,16.34,0,0,0-1.441-3.717A8.384,8.384,0,0,1,20.667,9.265ZM13.441,5.13a14.708,14.708,0,0,1,1.994,4.135H11.447A14.708,14.708,0,0,1,13.441,5.13ZM5.36,15.53a8.167,8.167,0,0,1,0-4.177H8.889a17.244,17.244,0,0,0-.146,2.088,17.244,17.244,0,0,0,.146,2.088Zm.856,2.088H9.3a16.34,16.34,0,0,0,1.441,3.717A8.339,8.339,0,0,1,6.216,17.618ZM9.3,9.265H6.216a8.339,8.339,0,0,1,4.521-3.717A16.34,16.34,0,0,0,9.3,9.265Zm4.145,12.488a14.708,14.708,0,0,1-1.994-4.135h3.989A14.708,14.708,0,0,1,13.441,21.753Zm2.443-6.223H11a15.362,15.362,0,0,1-.167-2.088A15.229,15.229,0,0,1,11,11.353h4.887a15.229,15.229,0,0,1,.167,2.088A15.362,15.362,0,0,1,15.885,15.53Zm.261,5.805a16.34,16.34,0,0,0,1.441-3.717h3.08a8.384,8.384,0,0,1-4.521,3.717Zm1.848-5.805a17.244,17.244,0,0,0,.146-2.088,17.244,17.244,0,0,0-.146-2.088h3.529a8.168,8.168,0,0,1,0,4.177Z" transform="translate(-3 -3)" fill="#e34b1e"/></svg>